<?xml version="1.0" encoding="UTF-8"?>
	<svg viewBox="0 0 100 100" xmlns="http://www.w3.org/2000/svg" fill="rgb(0,0,0)">
	  <path d="M 0 34
				L 0 36
				C 33 33, 66 37, 100 37
				L 100 35
				C 66 35, 33 31, 0 34"/>
	  <path d="M 0 67
				L 0 65
				C 33 61, 66 65, 100 67
				L 100 69
				C 66 67, 33 63, 0 67"/>
	  <path d="M 35 0
				L 33 0
				C 33 33, 33.9 64, 33.3 99.5
				L 35 100
				C 35 64, 35 33, 35 0"/>
	  <path d="M 66 0
				L 64.9 1
				C 64 33, 66 64, 65 100
				L 67 100
				C 68 64, 66 33, 66 0"/>
	</svg>